<svg width="48" height="48" viewBox="0 0 48 48" fill="none" xmlns="http://www.w3.org/2000/svg">
<rect width="48" height="48" rx="24" fill="#171717"/>
<path d="M16.18 17.08C16.74 17.0267 17.28 17.0467 17.8 17.14C18.5333 17.2467 19.2267 17.5133 19.88 17.94C19.96 18.0067 20.02 18.0333 20.06 18.02C20.1267 17.9533 20.3 17.8 20.58 17.56C20.9267 17.2667 21.1067 17.1133 21.12 17.1C21.16 17.0733 21.2533 17.06 21.4 17.06C21.56 17.06 21.66 17.0733 21.7 17.1C21.7667 17.14 21.8067 17.2333 21.82 17.38C21.8333 17.5667 21.84 18.26 21.84 19.46C21.84 20.9533 21.7933 21.7333 21.7 21.8C21.6467 21.8267 21.4533 21.84 21.12 21.84C20.7867 21.84 20.5933 21.8267 20.54 21.8C20.46 21.76 20.4067 21.62 20.38 21.38C20.3 20.9533 20.1733 20.56 20 20.2C19.84 19.8667 19.62 19.5733 19.34 19.32C18.7667 18.76 17.9667 18.46 16.94 18.42C15.8467 18.38 15.1533 18.74 14.86 19.5C14.7933 19.6867 14.76 19.9 14.76 20.14C14.76 20.4067 14.8067 20.64 14.9 20.84C15.1 21.2533 15.46 21.56 15.98 21.76C16.0733 21.8133 16.5867 21.9333 17.52 22.12C18.48 22.32 19.0133 22.44 19.12 22.48C19.7067 22.6267 20.2333 22.8733 20.7 23.22C21.66 23.9267 22.24 24.8933 22.44 26.12C22.4933 26.4933 22.4933 26.96 22.44 27.52C22.36 28.0267 22.2067 28.5133 21.98 28.98C21.7133 29.5267 21.36 29.9667 20.92 30.3C20.3067 30.7667 19.5667 31.06 18.7 31.18C18.3667 31.2333 17.8533 31.24 17.16 31.2C17.0933 31.1867 17.04 31.18 17 31.18C15.8533 31.06 14.9333 30.7733 14.24 30.32C14.16 30.2667 14.1 30.2467 14.06 30.26C13.9933 30.3267 13.82 30.48 13.54 30.72C13.1933 31.0133 13.0133 31.1667 13 31.18C12.96 31.2067 12.8667 31.22 12.72 31.22C12.56 31.22 12.46 31.2067 12.42 31.18C12.3533 31.14 12.3133 31.0467 12.3 30.9C12.2867 30.7133 12.28 30.0267 12.28 28.84C12.28 27.3867 12.2933 26.64 12.32 26.6C12.3333 26.5733 12.36 26.54 12.4 26.5C12.4667 26.46 12.66 26.44 12.98 26.44C13.3267 26.44 13.5267 26.4533 13.58 26.48C13.6733 26.5333 13.72 26.6733 13.72 26.9C13.76 27.62 14.0133 28.2133 14.48 28.68C14.8267 29.0267 15.3067 29.3 15.92 29.5C16.7067 29.7533 17.4933 29.84 18.28 29.76C18.3867 29.7467 18.48 29.7333 18.56 29.72C18.9333 29.64 19.24 29.48 19.48 29.24C19.7467 28.9733 19.92 28.6133 20 28.16C20.1067 27.48 19.92 26.9 19.44 26.42C19.24 26.1933 18.98 26.0333 18.66 25.94C18.6067 25.9133 18.0733 25.7867 17.06 25.56C16.1 25.3733 15.5533 25.2533 15.42 25.2C14.4333 24.92 13.66 24.3933 13.1 23.62C12.5267 22.86 12.2533 22.0067 12.28 21.06C12.32 20.1133 12.6 19.3 13.12 18.62C13.6133 17.9533 14.3333 17.4933 15.28 17.24C15.6 17.16 15.9 17.1067 16.18 17.08ZM28.9534 17.08C29.5134 17.0267 30.0534 17.0467 30.5734 17.14C31.3068 17.2467 32.0001 17.5133 32.6534 17.94C32.7334 18.0067 32.7934 18.0333 32.8334 18.02C32.9001 17.9533 33.0734 17.8 33.3534 17.56C33.7001 17.2667 33.8801 17.1133 33.8934 17.1C33.9334 17.0733 34.0268 17.06 34.1734 17.06C34.3334 17.06 34.4334 17.0733 34.4734 17.1C34.5401 17.14 34.5801 17.2333 34.5934 17.38C34.6068 17.5667 34.6134 18.26 34.6134 19.46C34.6134 20.9533 34.5668 21.7333 34.4734 21.8C34.4201 21.8267 34.2268 21.84 33.8934 21.84C33.5601 21.84 33.3668 21.8267 33.3134 21.8C33.2334 21.76 33.1801 21.62 33.1534 21.38C33.0734 20.9533 32.9468 20.56 32.7734 20.2C32.6134 19.8667 32.3934 19.5733 32.1134 19.32C31.5401 18.76 30.7401 18.46 29.7134 18.42C28.6201 18.38 27.9268 18.74 27.6334 19.5C27.5668 19.6867 27.5334 19.9 27.5334 20.14C27.5334 20.4067 27.5801 20.64 27.6734 20.84C27.8734 21.2533 28.2334 21.56 28.7534 21.76C28.8468 21.8133 29.3601 21.9333 30.2934 22.12C31.2534 22.32 31.7868 22.44 31.8934 22.48C32.4801 22.6267 33.0068 22.8733 33.4734 23.22C34.4334 23.9267 35.0134 24.8933 35.2134 26.12C35.2668 26.4933 35.2668 26.96 35.2134 27.52C35.1334 28.0267 34.9801 28.5133 34.7534 28.98C34.4868 29.5267 34.1334 29.9667 33.6934 30.3C33.0801 30.7667 32.3401 31.06 31.4734 31.18C31.1401 31.2333 30.6268 31.24 29.9334 31.2C29.8668 31.1867 29.8134 31.18 29.7734 31.18C28.6268 31.06 27.7068 30.7733 27.0134 30.32C26.9334 30.2667 26.8734 30.2467 26.8334 30.26C26.7668 30.3267 26.5934 30.48 26.3134 30.72C25.9668 31.0133 25.7868 31.1667 25.7734 31.18C25.7334 31.2067 25.6401 31.22 25.4934 31.22C25.3334 31.22 25.2334 31.2067 25.1934 31.18C25.1268 31.14 25.0868 31.0467 25.0734 30.9C25.0601 30.7133 25.0534 30.0267 25.0534 28.84C25.0534 27.3867 25.0668 26.64 25.0934 26.6C25.1068 26.5733 25.1334 26.54 25.1734 26.5C25.2401 26.46 25.4334 26.44 25.7534 26.44C26.1001 26.44 26.3001 26.4533 26.3534 26.48C26.4468 26.5333 26.4934 26.6733 26.4934 26.9C26.5334 27.62 26.7868 28.2133 27.2534 28.68C27.6001 29.0267 28.0801 29.3 28.6934 29.5C29.4801 29.7533 30.2668 29.84 31.0534 29.76C31.1601 29.7467 31.2534 29.7333 31.3334 29.72C31.7068 29.64 32.0134 29.48 32.2534 29.24C32.5201 28.9733 32.6934 28.6133 32.7734 28.16C32.8801 27.48 32.6934 26.9 32.2134 26.42C32.0134 26.1933 31.7534 26.0333 31.4334 25.94C31.3801 25.9133 30.8468 25.7867 29.8334 25.56C28.8734 25.3733 28.3268 25.2533 28.1934 25.2C27.2068 24.92 26.4334 24.3933 25.8734 23.62C25.3001 22.86 25.0268 22.0067 25.0534 21.06C25.0934 20.1133 25.3734 19.3 25.8934 18.62C26.3868 17.9533 27.1068 17.4933 28.0534 17.24C28.3734 17.16 28.6734 17.1067 28.9534 17.08Z" fill="#FAFAFA"/>
</svg>
