<svg width="249" height="27" viewBox="0 0 249 27" fill="none" xmlns="http://www.w3.org/2000/svg">
<path d="M1.13281 15.2695C1.89062 15.7695 2.6875 16.2383 3.52344 16.6758C4.35938 17.1055 5.22266 17.4805 6.11328 17.8008C7.01172 18.1211 7.92969 18.375 8.86719 18.5625C9.8125 18.7422 10.7734 18.832 11.75 18.832C12.125 18.832 12.4844 18.8086 12.8281 18.7617C13.1797 18.7148 13.4844 18.6406 13.7422 18.5391C14.0078 18.4297 14.2188 18.2891 14.375 18.1172C14.5391 17.9375 14.6211 17.7227 14.6211 17.4727C14.6211 17.2461 14.5547 17.0195 14.4219 16.793C14.2891 16.5586 14.0312 16.3359 13.6484 16.125C13.2734 15.9141 12.7461 15.7188 12.0664 15.5391C11.3867 15.3516 10.5039 15.1875 9.41797 15.0469C7.96484 14.8594 6.70312 14.6172 5.63281 14.3203C4.5625 14.0234 3.67578 13.6445 2.97266 13.1836C2.26953 12.7227 1.74609 12.168 1.40234 11.5195C1.05859 10.8711 0.886719 10.1016 0.886719 9.21094C0.886719 8.35938 1.07812 7.59766 1.46094 6.92578C1.85156 6.24609 2.41016 5.67188 3.13672 5.20312C3.86328 4.73438 4.74609 4.375 5.78516 4.125C6.82422 3.875 7.99609 3.75 9.30078 3.75C9.83984 3.75 10.3828 3.78125 10.9297 3.84375C11.4766 3.89844 12.0156 3.97656 12.5469 4.07812C13.0781 4.17969 13.5977 4.30078 14.1055 4.44141C14.6133 4.57422 15.0898 4.71484 15.5352 4.86328L17.832 3.59766H19.4375V9.22266C18.6016 8.73047 17.7578 8.29688 16.9062 7.92188C16.0625 7.54688 15.2227 7.23438 14.3867 6.98438C13.5586 6.72656 12.7461 6.53516 11.9492 6.41016C11.1602 6.27734 10.4062 6.21094 9.6875 6.21094C9.21875 6.21094 8.79297 6.24609 8.41016 6.31641C8.03516 6.38672 7.71484 6.48047 7.44922 6.59766C7.19141 6.71484 6.99219 6.85547 6.85156 7.01953C6.71094 7.17578 6.64062 7.34375 6.64062 7.52344C6.64062 7.78125 6.71094 8.01562 6.85156 8.22656C6.99219 8.42969 7.26562 8.62109 7.67188 8.80078C8.07812 8.98047 8.64844 9.15625 9.38281 9.32812C10.1172 9.49219 11.0781 9.67188 12.2656 9.86719C13.0547 10 13.8086 10.1406 14.5273 10.2891C15.2461 10.4375 15.9141 10.6172 16.5312 10.8281C17.1484 11.0312 17.7031 11.2773 18.1953 11.5664C18.6953 11.8555 19.1211 12.2031 19.4727 12.6094C19.8242 13.0156 20.0938 13.4922 20.2812 14.0391C20.4766 14.5859 20.5742 15.2227 20.5742 15.9492C20.5742 16.918 20.3398 17.75 19.8711 18.4453C19.4023 19.1406 18.7695 19.7109 17.9727 20.1562C17.1758 20.6016 16.2461 20.9297 15.1836 21.1406C14.1289 21.3516 13.0156 21.457 11.8438 21.457C10.75 21.457 9.64453 21.3398 8.52734 21.1055C7.41016 20.8789 6.33984 20.5078 5.31641 19.9922L3.44141 21.1641H1.13281V15.2695ZM22.9531 14.5195C22.9531 13.3398 23.1914 12.3164 23.668 11.4492C24.1523 10.5742 24.8242 9.85156 25.6836 9.28125C26.543 8.70312 27.5625 8.27344 28.7422 7.99219C29.9219 7.71094 31.2109 7.57031 32.6094 7.57031C34.0078 7.57031 35.2969 7.71094 36.4766 7.99219C37.6562 8.27344 38.6758 8.70312 39.5352 9.28125C40.3945 9.85156 41.0625 10.5742 41.5391 11.4492C42.0234 12.3164 42.2656 13.3398 42.2656 14.5195C42.2656 15.7461 42.0234 16.7969 41.5391 17.6719C41.0625 18.5469 40.3945 19.2656 39.5352 19.8281C38.6758 20.3906 37.6562 20.8008 36.4766 21.0586C35.2969 21.3242 34.0078 21.457 32.6094 21.457C31.2109 21.457 29.9219 21.3242 28.7422 21.0586C27.5625 20.8008 26.543 20.3906 25.6836 19.8281C24.8242 19.2656 24.1523 18.5469 23.668 17.6719C23.1914 16.7969 22.9531 15.7461 22.9531 14.5195ZM29.1172 14.5195C29.1172 15.2383 29.207 15.8906 29.3867 16.4766C29.5742 17.0625 29.8242 17.5625 30.1367 17.9766C30.457 18.3828 30.8281 18.6992 31.25 18.9258C31.6797 19.1445 32.1328 19.2539 32.6094 19.2539C33.0859 19.2539 33.5352 19.1445 33.957 18.9258C34.3867 18.6992 34.7578 18.3828 35.0703 17.9766C35.3906 17.5625 35.6406 17.0625 35.8203 16.4766C36.0078 15.8906 36.1016 15.2383 36.1016 14.5195C36.1016 13.793 36.0078 13.1328 35.8203 12.5391C35.6406 11.9453 35.3906 11.4375 35.0703 11.0156C34.7578 10.5938 34.3867 10.2656 33.957 10.0312C33.5352 9.79688 33.0859 9.67969 32.6094 9.67969C32.1328 9.67969 31.6797 9.79688 31.25 10.0312C30.8281 10.2656 30.457 10.5938 30.1367 11.0156C29.8242 11.4375 29.5742 11.9453 29.3867 12.5391C29.207 13.1328 29.1172 13.793 29.1172 14.5195ZM47.082 18.1406V5.41406L44.0117 2.78906L52.5547 2.4375V18.1406L55.7305 21H43.9062L47.082 18.1406ZM62.0938 6.52734C61.6719 6.52734 61.2734 6.44922 60.8984 6.29297C60.5312 6.12891 60.2109 5.91016 59.9375 5.63672C59.6641 5.36328 59.4453 5.04297 59.2812 4.67578C59.125 4.30078 59.0469 3.90234 59.0469 3.48047C59.0469 3.05859 59.125 2.66406 59.2812 2.29688C59.4453 1.92188 59.6641 1.59766 59.9375 1.32422C60.2109 1.04297 60.5312 0.824219 60.8984 0.667969C61.2734 0.503906 61.6719 0.421875 62.0938 0.421875C62.5156 0.421875 62.9102 0.503906 63.2773 0.667969C63.6523 0.824219 63.9766 1.04297 64.25 1.32422C64.5312 1.59766 64.75 1.92188 64.9062 2.29688C65.0703 2.66406 65.1523 3.05859 65.1523 3.48047C65.1523 3.90234 65.0703 4.30078 64.9062 4.67578C64.75 5.04297 64.5312 5.36328 64.25 5.63672C63.9766 5.91016 63.6523 6.12891 63.2773 6.29297C62.9102 6.44922 62.5156 6.52734 62.0938 6.52734ZM59.6211 18.1406V11.0039L56.5508 8.37891L65.0938 8.02734V18.1406L68.2695 21H56.4453L59.6211 18.1406ZM69.5234 14.6719C69.5234 13.6562 69.6914 12.7188 70.0273 11.8594C70.3711 10.9922 70.8555 10.2422 71.4805 9.60938C72.1133 8.97656 72.8711 8.48047 73.7539 8.12109C74.6367 7.75391 75.625 7.57031 76.7188 7.57031C77.2812 7.57031 77.8281 7.62109 78.3594 7.72266C78.8906 7.81641 79.3906 7.96875 79.8594 8.17969C80.3359 8.38281 80.7695 8.64844 81.1602 8.97656C81.5586 9.30469 81.9062 9.70312 82.2031 10.1719V5.41406L79.1328 2.78906L87.793 2.4375V18.1406L90.9688 21H82.2031V18.8555C81.6484 19.7383 80.9258 20.3945 80.0352 20.8242C79.1523 21.2461 78.1641 21.457 77.0703 21.457C75.7422 21.457 74.6016 21.2734 73.6484 20.9062C72.6953 20.5391 71.9141 20.0469 71.3047 19.4297C70.6953 18.8047 70.2461 18.082 69.957 17.2617C69.668 16.4414 69.5234 15.5781 69.5234 14.6719ZM75.6875 14.5195C75.6875 15.1602 75.7656 15.7227 75.9219 16.207C76.0859 16.6914 76.3125 17.0977 76.6016 17.4258C76.8906 17.7461 77.2344 17.9883 77.6328 18.1523C78.0312 18.3164 78.4688 18.3984 78.9453 18.3984C79.3438 18.3984 79.7344 18.3281 80.1172 18.1875C80.5078 18.0469 80.8555 17.8242 81.1602 17.5195C81.4727 17.207 81.7227 16.8047 81.9102 16.3125C82.1055 15.8203 82.2031 15.2227 82.2031 14.5195C82.2031 13.793 82.1094 13.1797 81.9219 12.6797C81.7422 12.1719 81.5 11.7617 81.1953 11.4492C80.8984 11.1289 80.5547 10.8984 80.1641 10.7578C79.7734 10.6094 79.3672 10.5352 78.9453 10.5352C78.4688 10.5352 78.0312 10.6211 77.6328 10.793C77.2344 10.9648 76.8906 11.2227 76.6016 11.5664C76.3125 11.9023 76.0859 12.3203 75.9219 12.8203C75.7656 13.3125 75.6875 13.8789 75.6875 14.5195ZM100.578 15.2695C101.336 15.7695 102.133 16.2383 102.969 16.6758C103.805 17.1055 104.668 17.4805 105.559 17.8008C106.457 18.1211 107.375 18.375 108.312 18.5625C109.258 18.7422 110.219 18.832 111.195 18.832C111.57 18.832 111.93 18.8086 112.273 18.7617C112.625 18.7148 112.93 18.6406 113.188 18.5391C113.453 18.4297 113.664 18.2891 113.82 18.1172C113.984 17.9375 114.066 17.7227 114.066 17.4727C114.066 17.2461 114 17.0195 113.867 16.793C113.734 16.5586 113.477 16.3359 113.094 16.125C112.719 15.9141 112.191 15.7188 111.512 15.5391C110.832 15.3516 109.949 15.1875 108.863 15.0469C107.41 14.8594 106.148 14.6172 105.078 14.3203C104.008 14.0234 103.121 13.6445 102.418 13.1836C101.715 12.7227 101.191 12.168 100.848 11.5195C100.504 10.8711 100.332 10.1016 100.332 9.21094C100.332 8.35938 100.523 7.59766 100.906 6.92578C101.297 6.24609 101.855 5.67188 102.582 5.20312C103.309 4.73438 104.191 4.375 105.23 4.125C106.27 3.875 107.441 3.75 108.746 3.75C109.285 3.75 109.828 3.78125 110.375 3.84375C110.922 3.89844 111.461 3.97656 111.992 4.07812C112.523 4.17969 113.043 4.30078 113.551 4.44141C114.059 4.57422 114.535 4.71484 114.98 4.86328L117.277 3.59766H118.883V9.22266C118.047 8.73047 117.203 8.29688 116.352 7.92188C115.508 7.54688 114.668 7.23438 113.832 6.98438C113.004 6.72656 112.191 6.53516 111.395 6.41016C110.605 6.27734 109.852 6.21094 109.133 6.21094C108.664 6.21094 108.238 6.24609 107.855 6.31641C107.48 6.38672 107.16 6.48047 106.895 6.59766C106.637 6.71484 106.438 6.85547 106.297 7.01953C106.156 7.17578 106.086 7.34375 106.086 7.52344C106.086 7.78125 106.156 8.01562 106.297 8.22656C106.438 8.42969 106.711 8.62109 107.117 8.80078C107.523 8.98047 108.094 9.15625 108.828 9.32812C109.562 9.49219 110.523 9.67188 111.711 9.86719C112.5 10 113.254 10.1406 113.973 10.2891C114.691 10.4375 115.359 10.6172 115.977 10.8281C116.594 11.0312 117.148 11.2773 117.641 11.5664C118.141 11.8555 118.566 12.2031 118.918 12.6094C119.27 13.0156 119.539 13.4922 119.727 14.0391C119.922 14.5859 120.02 15.2227 120.02 15.9492C120.02 16.918 119.785 17.75 119.316 18.4453C118.848 19.1406 118.215 19.7109 117.418 20.1562C116.621 20.6016 115.691 20.9297 114.629 21.1406C113.574 21.3516 112.461 21.457 111.289 21.457C110.195 21.457 109.09 21.3398 107.973 21.1055C106.855 20.8789 105.785 20.5078 104.762 19.9922L102.887 21.1641H100.578V15.2695ZM126.746 20.2148C126.652 20.5586 126.605 20.8945 126.605 21.2227C126.605 21.5977 126.656 21.9531 126.758 22.2891C126.859 22.6328 127.023 22.9336 127.25 23.1914C127.477 23.4492 127.766 23.6523 128.117 23.8008C128.477 23.957 128.914 24.0352 129.43 24.0352C129.859 24.0352 130.238 23.9492 130.566 23.7773C130.895 23.6133 131.18 23.3906 131.422 23.1094C131.672 22.8359 131.879 22.5156 132.043 22.1484C132.215 21.7812 132.352 21.3984 132.453 21H128.738L124.215 10.5703L121.227 8.02734H131.645L130.273 9.97266L133.086 18.5039L135.418 10.0547L134 8.02734H142.543L139.789 10.2891L135.875 21C135.461 22.1406 135 23.0703 134.492 23.7891C133.984 24.5156 133.422 25.082 132.805 25.4883C132.195 25.9023 131.527 26.1836 130.801 26.332C130.082 26.4883 129.297 26.5664 128.445 26.5664C127.43 26.5664 126.523 26.4531 125.727 26.2266C124.938 26.0078 124.27 25.6914 123.723 25.2773C123.176 24.8711 122.758 24.375 122.469 23.7891C122.188 23.2109 122.047 22.5586 122.047 21.832C122.047 21.6523 122.059 21.457 122.082 21.2461C122.113 21.0352 122.145 20.8477 122.176 20.6836L126.746 20.2148ZM143.855 16.2188C144.449 16.6094 145.086 16.9727 145.766 17.3086C146.453 17.6367 147.164 17.9258 147.898 18.1758C148.633 18.418 149.383 18.6094 150.148 18.75C150.914 18.8906 151.68 18.9609 152.445 18.9609C152.734 18.9609 153.02 18.9414 153.301 18.9023C153.59 18.8633 153.844 18.8047 154.062 18.7266C154.289 18.6406 154.469 18.5312 154.602 18.3984C154.742 18.2578 154.812 18.0898 154.812 17.8945C154.812 17.7305 154.758 17.5859 154.648 17.4609C154.547 17.3281 154.348 17.207 154.051 17.0977C153.754 16.9883 153.336 16.8906 152.797 16.8047C152.266 16.7188 151.57 16.6406 150.711 16.5703C150.133 16.5234 149.551 16.4648 148.965 16.3945C148.379 16.3164 147.812 16.2109 147.266 16.0781C146.727 15.9453 146.219 15.7734 145.742 15.5625C145.273 15.3516 144.863 15.0938 144.512 14.7891C144.168 14.4766 143.895 14.1055 143.691 13.6758C143.488 13.2461 143.387 12.7422 143.387 12.1641C143.387 11.4141 143.566 10.7539 143.926 10.1836C144.285 9.61328 144.77 9.13672 145.379 8.75391C145.996 8.36328 146.711 8.07031 147.523 7.875C148.336 7.67188 149.195 7.57031 150.102 7.57031C151.078 7.57031 152.043 7.6875 152.996 7.92188C153.957 8.14844 154.906 8.47656 155.844 8.90625L158.914 7.64062V12.2812C158.266 11.8984 157.594 11.5625 156.898 11.2734C156.211 10.9766 155.523 10.7305 154.836 10.5352C154.156 10.3398 153.488 10.1953 152.832 10.1016C152.184 10 151.578 9.94922 151.016 9.94922C150.641 9.94922 150.301 9.97656 149.996 10.0312C149.691 10.0859 149.426 10.1602 149.199 10.2539C148.98 10.3477 148.809 10.457 148.684 10.582C148.566 10.707 148.508 10.8398 148.508 10.9805C148.508 11.1211 148.559 11.2461 148.66 11.3555C148.77 11.4648 148.98 11.5703 149.293 11.6719C149.613 11.7656 150.062 11.8594 150.641 11.9531C151.227 12.0391 151.992 12.1289 152.938 12.2227C153.867 12.3164 154.758 12.457 155.609 12.6445C156.469 12.8242 157.227 13.082 157.883 13.418C158.539 13.7461 159.062 14.1758 159.453 14.707C159.844 15.2305 160.039 15.8867 160.039 16.6758C160.039 17.2461 159.934 17.7617 159.723 18.2227C159.52 18.6836 159.242 19.0898 158.891 19.4414C158.539 19.793 158.129 20.0977 157.66 20.3555C157.191 20.6055 156.691 20.8125 156.16 20.9766C155.637 21.1406 155.098 21.2617 154.543 21.3398C153.988 21.418 153.449 21.457 152.926 21.457C151.895 21.457 150.875 21.3281 149.867 21.0703C148.859 20.8125 147.879 20.4336 146.926 19.9336L143.855 21.3047V16.2188ZM163.953 10.418H161.938V8.60156C162.492 8.60156 163.012 8.52344 163.496 8.36719C163.98 8.20312 164.426 7.98438 164.832 7.71094C165.246 7.4375 165.613 7.12109 165.934 6.76172C166.262 6.39453 166.539 6.01172 166.766 5.61328C166.992 5.20703 167.164 4.79687 167.281 4.38281C167.406 3.96094 167.469 3.55469 167.469 3.16406H169.777V8.02734H175.531V10.418H169.777V15.6797C169.777 16.4062 169.863 16.9844 170.035 17.4141C170.215 17.8438 170.441 18.168 170.715 18.3867C170.996 18.6055 171.301 18.7461 171.629 18.8086C171.965 18.8711 172.289 18.9023 172.602 18.9023C173.398 18.9023 174.027 18.6758 174.488 18.2227C174.957 17.7617 175.191 17.0586 175.191 16.1133C175.191 16.043 175.191 15.9688 175.191 15.8906C175.191 15.8125 175.184 15.7305 175.168 15.6445L177.184 16.2422C177.207 16.4531 177.219 16.6523 177.219 16.8398C177.219 17.4102 177.129 17.9219 176.949 18.375C176.77 18.8281 176.523 19.2266 176.211 19.5703C175.898 19.9062 175.527 20.1953 175.098 20.4375C174.676 20.6797 174.223 20.875 173.738 21.0234C173.254 21.1719 172.75 21.2812 172.227 21.3516C171.703 21.4219 171.184 21.457 170.668 21.457C169.645 21.457 168.719 21.3555 167.891 21.1523C167.062 20.9492 166.355 20.625 165.77 20.1797C165.191 19.7344 164.742 19.1602 164.422 18.457C164.109 17.7461 163.953 16.8867 163.953 15.8789V10.418ZM178.812 14.707C178.812 13.7539 178.949 12.9141 179.223 12.1875C179.504 11.4609 179.879 10.8359 180.348 10.3125C180.824 9.78125 181.375 9.33984 182 8.98828C182.633 8.63672 183.305 8.35547 184.016 8.14453C184.727 7.93359 185.457 7.78516 186.207 7.69922C186.965 7.61328 187.699 7.57031 188.41 7.57031C189.543 7.57031 190.598 7.69531 191.574 7.94531C192.559 8.19531 193.41 8.59766 194.129 9.15234C194.848 9.70703 195.41 10.4375 195.816 11.3438C196.23 12.2422 196.438 13.3398 196.438 14.6367H184.988C185.02 15.4492 185.156 16.1211 185.398 16.6523C185.648 17.1758 185.969 17.5938 186.359 17.9062C186.75 18.2109 187.195 18.4258 187.695 18.5508C188.195 18.6758 188.711 18.7383 189.242 18.7383C189.719 18.7383 190.234 18.7109 190.789 18.6562C191.344 18.6016 191.898 18.5 192.453 18.3516C193.008 18.1953 193.539 17.9844 194.047 17.7188C194.555 17.4531 194.996 17.1055 195.371 16.6758L196.566 17.6133C196.371 18.0898 196.098 18.5156 195.746 18.8906C195.395 19.2656 194.992 19.5977 194.539 19.8867C194.086 20.168 193.594 20.4102 193.062 20.6133C192.539 20.8086 192 20.9688 191.445 21.0938C190.891 21.2188 190.336 21.3086 189.781 21.3633C189.227 21.4258 188.695 21.457 188.188 21.457C186.758 21.457 185.465 21.3086 184.309 21.0117C183.16 20.7148 182.176 20.2812 181.355 19.7109C180.543 19.1328 179.914 18.4258 179.469 17.5898C179.031 16.7461 178.812 15.7852 178.812 14.707ZM190.766 12.8086C190.766 12.2305 190.711 11.7461 190.602 11.3555C190.5 10.957 190.344 10.6367 190.133 10.3945C189.922 10.1523 189.656 9.98047 189.336 9.87891C189.023 9.76953 188.656 9.71484 188.234 9.71484C187.344 9.71484 186.637 9.98438 186.113 10.5234C185.59 11.0625 185.246 11.8242 185.082 12.8086H190.766ZM201.324 18.1406V11.0039L198.254 8.37891L206.68 8.02734V10.4414C207.266 9.51953 208.016 8.8125 208.93 8.32031C209.852 7.82031 210.895 7.57031 212.059 7.57031C213.355 7.57031 214.391 7.85156 215.164 8.41406C215.945 8.96875 216.508 9.80469 216.852 10.9219C217.414 9.85156 218.184 9.02734 219.16 8.44922C220.137 7.86328 221.254 7.57031 222.512 7.57031C223.418 7.57031 224.191 7.71094 224.832 7.99219C225.48 8.26562 226.008 8.67969 226.414 9.23438C226.828 9.78125 227.129 10.4688 227.316 11.2969C227.504 12.1172 227.598 13.0703 227.598 14.1562V18.1875L227.609 18.1406L230.551 21H220.215L222.242 18.1641V14.4023C222.242 13.9023 222.215 13.4297 222.16 12.9844C222.105 12.5391 222 12.1484 221.844 11.8125C221.688 11.4766 221.469 11.2109 221.188 11.0156C220.914 10.8203 220.559 10.7227 220.121 10.7227C219.395 10.7227 218.777 10.9727 218.27 11.4727C217.762 11.9727 217.422 12.6914 217.25 13.6289C217.25 13.7148 217.25 13.8047 217.25 13.8984C217.258 13.9844 217.262 14.0703 217.262 14.1562V18.1406L219.418 21H209.633L211.789 18.1406V14.4023C211.789 13.9023 211.762 13.4297 211.707 12.9844C211.652 12.5391 211.547 12.1484 211.391 11.8125C211.234 11.4766 211.016 11.2109 210.734 11.0156C210.461 10.8203 210.105 10.7227 209.668 10.7227C209.23 10.7227 208.828 10.8203 208.461 11.0156C208.094 11.2031 207.777 11.4805 207.512 11.8477C207.246 12.207 207.039 12.6523 206.891 13.1836C206.75 13.707 206.68 14.3086 206.68 14.9883V18.1406L208.836 21H198.148L201.324 18.1406ZM232.684 16.2188C233.277 16.6094 233.914 16.9727 234.594 17.3086C235.281 17.6367 235.992 17.9258 236.727 18.1758C237.461 18.418 238.211 18.6094 238.977 18.75C239.742 18.8906 240.508 18.9609 241.273 18.9609C241.562 18.9609 241.848 18.9414 242.129 18.9023C242.418 18.8633 242.672 18.8047 242.891 18.7266C243.117 18.6406 243.297 18.5312 243.43 18.3984C243.57 18.2578 243.641 18.0898 243.641 17.8945C243.641 17.7305 243.586 17.5859 243.477 17.4609C243.375 17.3281 243.176 17.207 242.879 17.0977C242.582 16.9883 242.164 16.8906 241.625 16.8047C241.094 16.7188 240.398 16.6406 239.539 16.5703C238.961 16.5234 238.379 16.4648 237.793 16.3945C237.207 16.3164 236.641 16.2109 236.094 16.0781C235.555 15.9453 235.047 15.7734 234.57 15.5625C234.102 15.3516 233.691 15.0938 233.34 14.7891C232.996 14.4766 232.723 14.1055 232.52 13.6758C232.316 13.2461 232.215 12.7422 232.215 12.1641C232.215 11.4141 232.395 10.7539 232.754 10.1836C233.113 9.61328 233.598 9.13672 234.207 8.75391C234.824 8.36328 235.539 8.07031 236.352 7.875C237.164 7.67188 238.023 7.57031 238.93 7.57031C239.906 7.57031 240.871 7.6875 241.824 7.92188C242.785 8.14844 243.734 8.47656 244.672 8.90625L247.742 7.64062V12.2812C247.094 11.8984 246.422 11.5625 245.727 11.2734C245.039 10.9766 244.352 10.7305 243.664 10.5352C242.984 10.3398 242.316 10.1953 241.66 10.1016C241.012 10 240.406 9.94922 239.844 9.94922C239.469 9.94922 239.129 9.97656 238.824 10.0312C238.52 10.0859 238.254 10.1602 238.027 10.2539C237.809 10.3477 237.637 10.457 237.512 10.582C237.395 10.707 237.336 10.8398 237.336 10.9805C237.336 11.1211 237.387 11.2461 237.488 11.3555C237.598 11.4648 237.809 11.5703 238.121 11.6719C238.441 11.7656 238.891 11.8594 239.469 11.9531C240.055 12.0391 240.82 12.1289 241.766 12.2227C242.695 12.3164 243.586 12.457 244.438 12.6445C245.297 12.8242 246.055 13.082 246.711 13.418C247.367 13.7461 247.891 14.1758 248.281 14.707C248.672 15.2305 248.867 15.8867 248.867 16.6758C248.867 17.2461 248.762 17.7617 248.551 18.2227C248.348 18.6836 248.07 19.0898 247.719 19.4414C247.367 19.793 246.957 20.0977 246.488 20.3555C246.02 20.6055 245.52 20.8125 244.988 20.9766C244.465 21.1406 243.926 21.2617 243.371 21.3398C242.816 21.418 242.277 21.457 241.754 21.457C240.723 21.457 239.703 21.3281 238.695 21.0703C237.688 20.8125 236.707 20.4336 235.754 19.9336L232.684 21.3047V16.2188Z" fill="#FAFAFA"/>
</svg>
