<svg width="139" height="21" viewBox="0 0 139 21" fill="none" xmlns="http://www.w3.org/2000/svg">
<path d="M0.736 1.268V1.1H10.172H19.636V1.268L19.944 4.824C20.112 7.15733 20.2053 8.34267 20.224 8.38V8.548H19.216C18.544 8.548 18.208 8.53867 18.208 8.52C18.208 8.14667 18.1613 7.66133 18.068 7.064C17.956 6.224 17.7973 5.53333 17.592 4.992C17.312 4.33867 16.836 3.85333 16.164 3.536C15.884 3.38667 15.5107 3.27467 15.044 3.2C14.876 3.16267 14.4 3.13467 13.616 3.116H12.524V10.536V17.984H14.68H16.808V18.992V20H16.36L13.056 19.944C11.1333 19.9253 9.22 19.9253 7.316 19.944L4.012 20H3.564V18.992V17.984H5.72H7.848V10.536V3.116H6.756C5.972 3.13467 5.496 3.16267 5.328 3.2C4.45067 3.368 3.77867 3.69467 3.312 4.18C3.01333 4.47867 2.77067 4.92667 2.584 5.524C2.43467 6.06533 2.31333 6.896 2.22 8.016C2.18267 8.33333 2.164 8.50133 2.164 8.52C2.164 8.53867 1.828 8.548 1.156 8.548H0.148V8.38L0.456 4.824C0.624 2.49067 0.717333 1.30533 0.736 1.268ZM24.6705 7.512C26.4252 7.43733 27.2839 7.4 27.2465 7.4H27.4145V8.128L27.4425 8.856L27.5265 8.716C27.8812 8.19333 28.3572 7.82 28.9545 7.596C29.8692 7.26 30.8772 7.316 31.9785 7.764C32.2212 7.83867 32.4359 7.94133 32.6225 8.072C33.2572 8.50133 33.6305 9.03333 33.7425 9.668C33.8172 10.004 33.7985 10.3213 33.6865 10.62C33.5372 11.1987 33.2012 11.6187 32.6785 11.88C32.3612 12.0107 32.0439 12.076 31.7265 12.076C31.3719 12.076 31.0545 12.0107 30.7745 11.88C30.2332 11.6187 29.8785 11.1987 29.7105 10.62C29.6919 10.5267 29.6825 10.3307 29.6825 10.032C29.6825 9.73333 29.7012 9.51867 29.7385 9.388C29.8132 9.22 29.8319 9.136 29.7945 9.136C29.7385 9.08 29.5705 9.136 29.2905 9.304C29.0105 9.43467 28.7585 9.65867 28.5345 9.976C28.1799 10.536 27.9279 11.3573 27.7785 12.44C27.7599 12.6267 27.7412 13.616 27.7225 15.408V17.984H28.9265H30.1585V18.992V20H29.8505L27.7225 19.944C26.4905 19.9253 25.3239 19.9253 24.2225 19.944C22.9719 19.9813 22.3372 20 22.3185 20H22.0665V18.992V17.984H23.0465H23.9985V14.12C23.9985 11.544 23.9799 10.2093 23.9425 10.116C23.8865 9.92933 23.7652 9.808 23.5785 9.752C23.3172 9.67733 22.9345 9.64 22.4305 9.64H22.0665V8.632V7.624H22.1505L24.6705 7.512ZM38.3803 7.512C40.3216 7.43733 41.2643 7.4 41.2083 7.4H41.3763V12.356C41.3763 15.996 41.4043 17.9 41.4603 18.068C41.5536 18.3293 42.1509 18.46 43.2523 18.46C43.7749 18.46 44.2323 18.3853 44.6243 18.236C45.2589 17.956 45.7443 17.5173 46.0803 16.92C46.2669 16.5653 46.3696 16.2573 46.3883 15.996C46.4069 15.9027 46.4163 14.9133 46.4163 13.028C46.4163 11.18 46.3976 10.2093 46.3603 10.116C46.3043 9.92933 46.1829 9.808 45.9963 9.752C45.7349 9.67733 45.3523 9.64 44.8483 9.64H44.4843V8.632C44.4843 7.96 44.4936 7.624 44.5123 7.624L47.3963 7.512C49.3003 7.43733 50.2616 7.4 50.2803 7.4C50.2989 7.4 50.3083 9.06133 50.3083 12.384C50.3083 15.7067 50.3269 17.4147 50.3643 17.508C50.4203 17.6947 50.5416 17.816 50.7283 17.872C50.9896 17.9467 51.3723 17.984 51.8763 17.984H52.2403V18.992C52.2403 19.664 52.2309 20 52.2123 20C51.8576 20 50.9243 20.028 49.4123 20.084C47.9003 20.14 46.9669 20.168 46.6123 20.168C46.5936 20.168 46.5843 19.9067 46.5843 19.384V18.628L46.4163 18.768C45.5763 19.4587 44.6149 19.8973 43.5323 20.084C42.6923 20.2333 41.7589 20.2333 40.7323 20.084C40.6949 20.0653 40.6576 20.056 40.6203 20.056C40.0416 19.9813 39.5283 19.8227 39.0803 19.58C38.2963 19.188 37.7923 18.5067 37.5683 17.536L37.5123 17.256L37.4843 13.7C37.4843 11.404 37.4656 10.1813 37.4283 10.032C37.3349 9.84533 37.0549 9.724 36.5883 9.668C36.4763 9.64933 36.2523 9.64 35.9163 9.64H35.5523V8.632V7.624H35.6363L38.3803 7.512ZM59.6791 7.344L61.5551 7.372C62.8804 7.55867 63.9444 8.02533 64.7471 8.772C65.6804 9.70533 66.2124 10.9747 66.3431 12.58C66.3991 13.2707 66.3151 13.6907 66.0911 13.84C66.0164 13.8773 64.5977 13.896 61.8351 13.896H57.7191V14.456C57.7751 15.7627 58.0364 16.6773 58.5031 17.2C58.5404 17.2373 58.5871 17.284 58.6431 17.34C59.1844 17.8813 60.0057 18.208 61.1071 18.32C61.5364 18.3573 61.8911 18.348 62.1711 18.292C63.1791 18.1427 63.8884 17.6387 64.2991 16.78C64.3177 16.724 64.3364 16.6773 64.3551 16.64C64.4484 16.3973 64.5977 16.2667 64.8031 16.248C64.8964 16.2293 65.0831 16.22 65.3631 16.22C65.7737 16.22 66.0164 16.2387 66.0911 16.276C66.3151 16.388 66.3991 16.584 66.3431 16.864C66.2311 17.256 66.0444 17.62 65.7831 17.956C64.9431 19.1133 63.6271 19.832 61.8351 20.112C61.3124 20.1867 60.6124 20.196 59.7351 20.14C59.6791 20.1213 59.6231 20.112 59.5671 20.112C56.5431 19.72 54.6111 18.3013 53.7711 15.856C53.6591 15.4827 53.5657 15.0907 53.4911 14.68C53.4164 14.1573 53.4164 13.5413 53.4911 12.832C53.4911 12.776 53.4911 12.7293 53.4911 12.692C53.6964 11.4787 54.1351 10.4613 54.8071 9.64C55.0497 9.304 55.4044 8.968 55.8711 8.632C56.8977 7.88533 58.1671 7.456 59.6791 7.344ZM60.9391 9.08C60.6591 9.024 60.3044 9.01467 59.8751 9.052C59.0351 9.20133 58.4471 9.62133 58.1111 10.312C57.9244 10.704 57.8031 11.2733 57.7471 12.02V12.272H60.3511H62.9831L62.9551 12.132C62.7684 10.396 62.0964 9.37867 60.9391 9.08ZM79.5687 0.511999H81.1367C81.902 0.567999 82.6114 0.726666 83.2647 0.987999C83.9927 1.23067 84.6927 1.604 85.3647 2.108C85.5327 2.23867 85.6167 2.28533 85.6167 2.248C85.6354 2.248 85.9807 1.968 86.6527 1.408C87.3994 0.810666 87.7634 0.521332 87.7447 0.539999C87.894 0.446665 88.1647 0.446665 88.5567 0.539999C88.65 0.595999 88.706 0.689332 88.7247 0.819998C88.7434 1.00667 88.7527 2.22 88.7527 4.46C88.7527 6.94267 88.7247 8.22133 88.6687 8.296L88.5567 8.352C88.482 8.38933 88.1834 8.408 87.6607 8.408C87.138 8.408 86.8394 8.38933 86.7647 8.352C86.634 8.25867 86.5594 8.11867 86.5407 7.932C86.3914 6.55067 85.8967 5.356 85.0567 4.348C84.6834 3.93733 84.3287 3.61067 83.9927 3.368C83.3954 2.93867 82.77 2.67733 82.1167 2.584C81.2954 2.416 80.2874 2.46267 79.0927 2.724C77.898 2.96667 76.9367 3.396 76.2087 4.012C75.7794 4.348 75.462 4.684 75.2567 5.02C74.4727 6.15867 74.0807 7.95067 74.0807 10.396C74.0807 12.9533 74.5194 14.8013 75.3967 15.94C75.49 16.0707 75.602 16.2013 75.7327 16.332C75.9754 16.5747 76.134 16.724 76.2087 16.78C76.9367 17.396 77.898 17.8253 79.0927 18.068C80.138 18.292 81.062 18.3573 81.8647 18.264C83.5634 18.096 84.8794 17.34 85.8127 15.996C86.3727 15.212 86.6807 14.344 86.7367 13.392C86.7367 13.0747 86.802 12.8787 86.9327 12.804C87.0074 12.7667 87.278 12.748 87.7447 12.748C88.2114 12.748 88.482 12.7667 88.5567 12.804C88.6874 12.8973 88.7527 13.112 88.7527 13.448C88.6967 14.344 88.4914 15.156 88.1367 15.884C87.2594 17.7133 85.7567 19.0013 83.6287 19.748C82.8447 20.028 82.014 20.2053 81.1367 20.28C80.5394 20.336 79.7834 20.3267 78.8687 20.252C76.5167 19.9907 74.5567 19.3187 72.9887 18.236C71.4954 17.1347 70.4314 15.7627 69.7967 14.12C69.5167 13.4107 69.302 12.5707 69.1527 11.6C69.078 10.928 69.078 10.1627 69.1527 9.304C69.1527 9.248 69.1527 9.20133 69.1527 9.164C69.3394 7.67067 69.806 6.32667 70.5527 5.132C71.6914 3.284 73.418 1.968 75.7327 1.184C76.9274 0.810666 78.206 0.586666 79.5687 0.511999ZM97.9942 7.344L99.7022 7.372C102.465 7.68933 104.304 8.95867 105.218 11.18C105.274 11.3107 105.33 11.4507 105.386 11.6C105.61 12.272 105.732 12.9627 105.75 13.672C105.788 15.1653 105.414 16.4533 104.63 17.536C104.22 18.152 103.66 18.6653 102.95 19.076C102.484 19.3933 101.84 19.664 101.018 19.888C100.346 20.056 99.5436 20.14 98.6102 20.14C97.6769 20.14 96.8742 20.056 96.2022 19.888C95.3809 19.664 94.7369 19.3933 94.2702 19.076C93.5609 18.6653 93.0009 18.152 92.5902 17.536C92.1049 16.8453 91.7689 16.0427 91.5822 15.128C91.2462 13.3173 91.5636 11.6653 92.5342 10.172C92.6462 9.96667 92.7769 9.78 92.9262 9.612C94.0089 8.324 95.5582 7.57733 97.5742 7.372C97.6862 7.35333 97.8262 7.344 97.9942 7.344ZM99.4502 9.108C99.0022 9.03333 98.5449 9.01467 98.0782 9.052C97.3502 9.164 96.8182 9.388 96.4822 9.724C96.1089 10.06 95.8849 10.62 95.8102 11.404C95.7729 11.796 95.7542 12.3747 95.7542 13.14C95.7356 15.1187 95.8289 16.3973 96.0342 16.976C96.2956 17.648 96.9022 18.0867 97.8542 18.292C98.2836 18.3667 98.7876 18.3667 99.3662 18.292C99.9449 18.18 100.393 17.9653 100.71 17.648C101.084 17.2933 101.308 16.6867 101.382 15.828C101.401 15.6227 101.42 15.3893 101.438 15.128L101.41 11.628C101.41 11.572 101.41 11.5347 101.41 11.516C101.317 10.6573 101.093 10.06 100.738 9.724C100.44 9.42533 100.01 9.22 99.4502 9.108ZM119.028 0.679998C120.894 0.605333 121.809 0.568 121.772 0.568H121.94V8.968C121.94 14.568 121.958 17.4147 121.996 17.508C122.052 17.6947 122.173 17.816 122.36 17.872C122.621 17.9467 123.004 17.984 123.508 17.984H123.872V18.992C123.872 19.664 123.862 20 123.844 20C123.489 20 122.528 20.028 120.96 20.084C119.392 20.14 118.43 20.168 118.076 20.168C118.057 20.168 118.048 19.972 118.048 19.58V19.02L117.908 19.104C117.124 19.552 116.228 19.8693 115.22 20.056C114.342 20.1867 113.54 20.2053 112.812 20.112C111.43 19.8693 110.329 19.3373 109.508 18.516C108.276 17.3027 107.688 15.6413 107.744 13.532C107.762 12.804 107.884 12.0853 108.108 11.376C108.705 9.65867 109.834 8.48267 111.496 7.848C111.552 7.82933 111.608 7.81067 111.664 7.792C112.317 7.568 113.036 7.43733 113.82 7.4C115.313 7.36267 116.694 7.64267 117.964 8.24L118.216 8.352V5.888C118.216 4.24533 118.197 3.37733 118.16 3.284C118.104 3.09733 117.982 2.976 117.796 2.92C117.534 2.84533 117.152 2.808 116.648 2.808H116.284V1.8V0.791999H116.368C116.274 0.791999 117.161 0.754665 119.028 0.679998ZM115.864 9.192C115.49 9.11733 115.098 9.09867 114.688 9.136C113.866 9.22933 113.241 9.49067 112.812 9.92C112.364 10.3867 112.112 11.2547 112.056 12.524C112.037 12.972 112.028 13.5413 112.028 14.232C112.046 15.8933 112.205 16.948 112.504 17.396C112.56 17.4893 112.634 17.5827 112.728 17.676C113.344 18.3667 114.249 18.6093 115.444 18.404C115.854 18.3293 116.246 18.1987 116.62 18.012C117.012 17.8067 117.376 17.536 117.712 17.2L118.048 16.864V13.56V10.256L117.908 10.144C117.292 9.62133 116.61 9.304 115.864 9.192ZM131.703 7.344L133.579 7.372C134.904 7.55867 135.968 8.02533 136.771 8.772C137.704 9.70533 138.236 10.9747 138.367 12.58C138.423 13.2707 138.339 13.6907 138.115 13.84C138.04 13.8773 136.621 13.896 133.859 13.896H129.743V14.456C129.799 15.7627 130.06 16.6773 130.527 17.2C130.564 17.2373 130.611 17.284 130.667 17.34C131.208 17.8813 132.029 18.208 133.131 18.32C133.56 18.3573 133.915 18.348 134.195 18.292C135.203 18.1427 135.912 17.6387 136.323 16.78C136.341 16.724 136.36 16.6773 136.379 16.64C136.472 16.3973 136.621 16.2667 136.827 16.248C136.92 16.2293 137.107 16.22 137.387 16.22C137.797 16.22 138.04 16.2387 138.115 16.276C138.339 16.388 138.423 16.584 138.367 16.864C138.255 17.256 138.068 17.62 137.807 17.956C136.967 19.1133 135.651 19.832 133.859 20.112C133.336 20.1867 132.636 20.196 131.758 20.14C131.703 20.1213 131.647 20.112 131.591 20.112C128.567 19.72 126.635 18.3013 125.795 15.856C125.683 15.4827 125.589 15.0907 125.515 14.68C125.44 14.1573 125.44 13.5413 125.515 12.832C125.515 12.776 125.515 12.7293 125.515 12.692C125.72 11.4787 126.159 10.4613 126.831 9.64C127.073 9.304 127.428 8.968 127.895 8.632C128.921 7.88533 130.191 7.456 131.703 7.344ZM132.963 9.08C132.683 9.024 132.328 9.01467 131.899 9.052C131.059 9.20133 130.471 9.62133 130.135 10.312C129.948 10.704 129.827 11.2733 129.771 12.02V12.272H132.375H135.007L134.979 12.132C134.792 10.396 134.12 9.37867 132.963 9.08Z" fill="#FAFAFA"/>
</svg>
